<svg xmlns="http://www.w3.org/2000/svg" xmlns:xlink="http://www.w3.org/1999/xlink" width="300" zoomAndPan="magnify" viewBox="0 0 224.87999 52.499999" height="70" preserveAspectRatio="xMidYMid meet" version="1.0"><defs><g/><clipPath id="088239eafc"><path d="M 25 16 L 86 16 L 86 50.90625 L 25 50.90625 Z M 25 16 " clip-rule="nonzero"/></clipPath><clipPath id="47540f0343"><path d="M 11 1.128906 L 61 1.128906 L 61 37 L 11 37 Z M 11 1.128906 " clip-rule="nonzero"/></clipPath><clipPath id="9796f5efba"><path d="M 28 47 L 88.46875 47 L 88.46875 50.90625 L 28 50.90625 Z M 28 47 " clip-rule="nonzero"/></clipPath></defs><g clip-path="url(#088239eafc)"><path fill="#270b04" d="M 84.410156 50.632812 C 80.160156 47.921875 76.578125 44.660156 74.179688 41.414062 C 71.707031 38.070312 70.445312 34.675781 70.894531 31.785156 L 71.023438 30.957031 L 71.800781 30.644531 C 71.808594 30.640625 73.632812 29.90625 75.492188 28.957031 C 68.242188 28.496094 61.46875 26.171875 54.804688 23.886719 C 45.390625 20.65625 36.203125 17.503906 26.582031 20.15625 L 25.800781 17.320312 C 36.308594 14.421875 45.917969 17.71875 55.761719 21.097656 C 63.605469 23.789062 71.605469 26.53125 80.125 26.035156 L 83.496094 25.835938 L 81.332031 28.445312 C 79.84375 30.238281 75.570312 32.222656 73.742188 33.019531 Z M 76.542969 39.664062 C 78.738281 42.636719 82.046875 45.640625 85.992188 48.152344 L 84.410156 50.632812 Z M 76.542969 39.664062 " fill-opacity="1" fill-rule="nonzero"/></g><path fill="#270b04" d="M 80.265625 47.351562 C 80.234375 47.347656 69.9375 46.117188 62.417969 38.234375 L 64.550781 36.207031 C 71.34375 43.324219 80.609375 44.433594 80.632812 44.433594 Z M 80.265625 47.351562 " fill-opacity="1" fill-rule="nonzero"/><path fill="#270b04" d="M 62.539062 38.367188 C 62.503906 38.351562 51.609375 33.875 39.980469 39.289062 C 40.828125 40.335938 41.933594 41.90625 42.878906 43.917969 L 40.214844 45.164062 C 38.625 41.773438 36.601562 39.921875 36.597656 39.914062 L 35.113281 38.527344 L 36.898438 37.550781 C 50.359375 30.183594 63.582031 35.617188 63.621094 35.632812 Z M 62.539062 38.367188 " fill-opacity="1" fill-rule="nonzero"/><path fill="#270b04" d="M 46.042969 47.960938 C 46.007812 47.945312 34.34375 43.136719 29.585938 41.488281 L 27.75 40.855469 L 28.851562 39.265625 C 32.433594 34.09375 37.347656 31.527344 42.933594 30.441406 C 48.347656 29.386719 54.355469 29.75 60.363281 30.460938 L 60.019531 33.390625 C 54.257812 32.707031 48.527344 32.351562 43.484375 33.332031 C 39.210938 34.164062 35.402344 35.972656 32.457031 39.402344 C 37.953125 41.445312 47.128906 45.226562 47.160156 45.242188 Z M 46.042969 47.960938 " fill-opacity="1" fill-rule="nonzero"/><g clip-path="url(#47540f0343)"><path fill="#270b04" d="M 60.132812 29.964844 C 58.011719 29.351562 56.074219 28.738281 54.105469 28.113281 C 44.097656 24.941406 33.207031 21.492188 27.800781 25.820312 L 25.425781 24.445312 C 25.429688 24.429688 26.039062 20.867188 24.070312 17.773438 C 23.664062 18.636719 23.21875 19.632812 22.910156 20.472656 L 22.175781 22.472656 L 20.5625 21.085938 C 16.539062 17.621094 15.652344 13.707031 16.625 10.386719 C 17.027344 9.007812 17.75 7.746094 18.699219 6.679688 C 19.371094 5.925781 20.160156 5.261719 21.035156 4.714844 C 20.164062 4.988281 19.320312 5.363281 18.542969 5.839844 C 16.269531 7.222656 14.546875 9.460938 14.238281 12.457031 C 13.5625 18.992188 16.921875 21.539062 20.496094 24.242188 C 23.242188 26.320312 26.097656 28.480469 27.808594 32.304688 C 28.253906 31.835938 28.457031 31.226562 28.664062 30.597656 C 29.277344 28.761719 29.917969 26.835938 33.214844 25.753906 L 35.332031 25.054688 L 35.140625 27.273438 C 34.808594 31.101562 38.5 31.832031 38.511719 31.835938 L 37.910156 34.71875 C 37.898438 34.714844 33.417969 33.824219 32.378906 29.644531 C 31.890625 30.210938 31.667969 30.875 31.453125 31.519531 C 30.863281 33.292969 30.300781 34.984375 27.453125 35.820312 L 26.074219 36.222656 L 25.636719 34.851562 C 24.363281 30.863281 21.480469 28.679688 18.71875 26.59375 C 14.464844 23.371094 10.464844 20.34375 11.308594 12.160156 C 11.722656 8.136719 14 5.15625 17.011719 3.324219 C 18.359375 2.503906 19.863281 1.914062 21.40625 1.574219 C 22.949219 1.230469 24.535156 1.132812 26.058594 1.289062 C 29.390625 1.632812 32.445312 3.183594 34.191406 6.046875 L 31.980469 7.9375 C 29.222656 5.601562 25.945312 5.535156 23.394531 6.765625 C 22.441406 7.226562 21.589844 7.867188 20.902344 8.640625 C 20.226562 9.394531 19.722656 10.269531 19.449219 11.207031 C 18.90625 13.054688 19.269531 15.222656 21.019531 17.355469 C 21.71875 15.804688 22.433594 14.425781 22.4375 14.421875 L 23.332031 12.703125 L 24.75 14.023438 C 27.457031 16.542969 28.234375 19.769531 28.40625 22.050781 C 35.242188 19.042969 45.488281 22.289062 54.996094 25.300781 C 57.121094 25.972656 59.214844 26.636719 60.953125 27.140625 Z M 60.132812 29.964844 " fill-opacity="1" fill-rule="nonzero"/></g><path fill="#270b04" d="M 66.09375 24.546875 C 68.128906 24.546875 69.972656 25.375 71.308594 26.707031 C 72.644531 28.042969 73.46875 29.886719 73.46875 31.925781 C 73.46875 33.960938 72.644531 35.804688 71.308594 37.140625 C 69.972656 38.476562 68.128906 39.300781 66.09375 39.300781 C 64.054688 39.300781 62.210938 38.476562 60.878906 37.140625 C 59.542969 35.804688 58.714844 33.960938 58.714844 31.925781 C 58.714844 29.886719 59.542969 28.042969 60.878906 26.707031 C 62.210938 25.375 64.054688 24.546875 66.09375 24.546875 Z M 69.222656 28.796875 C 68.421875 27.996094 67.316406 27.5 66.09375 27.5 C 64.871094 27.5 63.765625 27.996094 62.964844 28.796875 C 62.164062 29.597656 61.667969 30.703125 61.667969 31.925781 C 61.667969 33.148438 62.164062 34.253906 62.964844 35.054688 C 63.765625 35.855469 64.871094 36.351562 66.09375 36.351562 C 67.316406 36.351562 68.421875 35.855469 69.222656 35.054688 C 70.023438 34.253906 70.519531 33.148438 70.519531 31.925781 C 70.519531 30.703125 70.023438 29.597656 69.222656 28.796875 Z M 69.222656 28.796875 " fill-opacity="1" fill-rule="nonzero"/><path fill="#270b04" d="M 68.171875 31.925781 C 68.171875 32.199219 68.117188 32.464844 68.011719 32.71875 C 67.90625 32.976562 67.757812 33.199219 67.5625 33.394531 C 67.367188 33.589844 67.144531 33.738281 66.886719 33.84375 C 66.632812 33.949219 66.367188 34.003906 66.09375 34.003906 C 65.816406 34.003906 65.550781 33.949219 65.296875 33.84375 C 65.042969 33.738281 64.820312 33.589844 64.625 33.394531 C 64.429688 33.199219 64.277344 32.976562 64.171875 32.71875 C 64.066406 32.464844 64.015625 32.199219 64.015625 31.925781 C 64.015625 31.648438 64.066406 31.382812 64.171875 31.128906 C 64.277344 30.875 64.429688 30.652344 64.625 30.457031 C 64.820312 30.261719 65.042969 30.109375 65.296875 30.003906 C 65.550781 29.898438 65.816406 29.847656 66.09375 29.847656 C 66.367188 29.847656 66.632812 29.898438 66.886719 30.003906 C 67.144531 30.109375 67.367188 30.261719 67.5625 30.457031 C 67.757812 30.652344 67.90625 30.875 68.011719 31.128906 C 68.117188 31.382812 68.171875 31.648438 68.171875 31.925781 Z M 68.171875 31.925781 " fill-opacity="1" fill-rule="nonzero"/><g clip-path="url(#9796f5efba)"><path fill="#270b04" d="M 28.433594 47.917969 L 88.492188 47.917969 L 88.492188 50.867188 L 28.433594 50.867188 Z M 28.433594 47.917969 " fill-opacity="1" fill-rule="nonzero"/></g><g fill="#270b04" fill-opacity="1"><g transform="translate(87.161256, 22.417855)"><g><path d="M 0.90625 0.046875 C 0.8125 0.046875 0.742188 0.015625 0.703125 -0.046875 C 0.660156 -0.109375 0.640625 -0.1875 0.640625 -0.28125 C 0.648438 -0.425781 0.675781 -0.515625 0.71875 -0.546875 C 0.769531 -0.578125 0.863281 -0.59375 1 -0.59375 C 1.289062 -0.59375 1.503906 -0.644531 1.640625 -0.75 C 1.773438 -0.851562 1.859375 -0.976562 1.890625 -1.125 C 1.929688 -1.28125 1.957031 -1.484375 1.96875 -1.734375 L 1.96875 -7.609375 C 1.957031 -7.847656 1.929688 -8.046875 1.890625 -8.203125 C 1.859375 -8.359375 1.773438 -8.488281 1.640625 -8.59375 C 1.503906 -8.695312 1.289062 -8.75 1 -8.75 L 0.921875 -8.75 C 0.816406 -8.75 0.742188 -8.765625 0.703125 -8.796875 C 0.671875 -8.828125 0.648438 -8.914062 0.640625 -9.0625 C 0.640625 -9.144531 0.660156 -9.21875 0.703125 -9.28125 C 0.742188 -9.34375 0.8125 -9.375 0.90625 -9.375 C 1.539062 -9.351562 2.125 -9.34375 2.65625 -9.34375 C 3.238281 -9.34375 3.851562 -9.351562 4.5 -9.375 C 4.582031 -9.375 4.644531 -9.34375 4.6875 -9.28125 C 4.738281 -9.21875 4.765625 -9.144531 4.765625 -9.0625 C 4.753906 -8.90625 4.722656 -8.8125 4.671875 -8.78125 C 4.628906 -8.757812 4.535156 -8.75 4.390625 -8.75 C 4.109375 -8.75 3.894531 -8.695312 3.75 -8.59375 C 3.613281 -8.488281 3.53125 -8.359375 3.5 -8.203125 C 3.46875 -8.046875 3.445312 -7.847656 3.4375 -7.609375 L 3.4375 -4.984375 L 8.078125 -4.984375 L 8.078125 -7.609375 C 8.066406 -7.847656 8.039062 -8.046875 8 -8.203125 C 7.96875 -8.359375 7.882812 -8.488281 7.75 -8.59375 C 7.613281 -8.695312 7.40625 -8.75 7.125 -8.75 L 7.03125 -8.75 C 6.925781 -8.75 6.851562 -8.765625 6.8125 -8.796875 C 6.769531 -8.828125 6.742188 -8.914062 6.734375 -9.0625 C 6.734375 -9.144531 6.753906 -9.21875 6.796875 -9.28125 C 6.847656 -9.34375 6.914062 -9.375 7 -9.375 C 7.632812 -9.351562 8.25 -9.34375 8.84375 -9.34375 C 9.382812 -9.34375 9.972656 -9.351562 10.609375 -9.375 C 10.703125 -9.375 10.769531 -9.34375 10.8125 -9.28125 C 10.851562 -9.21875 10.875 -9.144531 10.875 -9.0625 C 10.863281 -8.90625 10.832031 -8.8125 10.78125 -8.78125 C 10.726562 -8.757812 10.632812 -8.75 10.5 -8.75 C 10.21875 -8.75 10.003906 -8.695312 9.859375 -8.59375 C 9.710938 -8.488281 9.625 -8.359375 9.59375 -8.203125 C 9.5625 -8.046875 9.539062 -7.847656 9.53125 -7.609375 L 9.53125 -1.734375 C 9.539062 -1.484375 9.5625 -1.28125 9.59375 -1.125 C 9.625 -0.976562 9.710938 -0.851562 9.859375 -0.75 C 10.003906 -0.644531 10.21875 -0.59375 10.5 -0.59375 L 10.59375 -0.59375 C 10.6875 -0.59375 10.753906 -0.570312 10.796875 -0.53125 C 10.835938 -0.5 10.863281 -0.414062 10.875 -0.28125 C 10.875 -0.1875 10.851562 -0.109375 10.8125 -0.046875 C 10.769531 0.015625 10.703125 0.046875 10.609375 0.046875 C 9.972656 0.015625 9.378906 0 8.828125 0 C 8.242188 0 7.632812 0.015625 7 0.046875 C 6.914062 0.046875 6.847656 0.015625 6.796875 -0.046875 C 6.753906 -0.109375 6.734375 -0.1875 6.734375 -0.28125 C 6.742188 -0.425781 6.773438 -0.515625 6.828125 -0.546875 C 6.878906 -0.578125 6.976562 -0.59375 7.125 -0.59375 C 7.40625 -0.59375 7.613281 -0.644531 7.75 -0.75 C 7.882812 -0.851562 7.96875 -0.976562 8 -1.125 C 8.039062 -1.28125 8.066406 -1.484375 8.078125 -1.734375 L 8.078125 -4.34375 L 3.4375 -4.34375 L 3.4375 -1.734375 C 3.445312 -1.484375 3.46875 -1.28125 3.5 -1.125 C 3.53125 -0.976562 3.613281 -0.851562 3.75 -0.75 C 3.894531 -0.644531 4.109375 -0.59375 4.390625 -0.59375 L 4.484375 -0.59375 C 4.578125 -0.59375 4.644531 -0.570312 4.6875 -0.53125 C 4.726562 -0.5 4.753906 -0.414062 4.765625 -0.28125 C 4.765625 -0.1875 4.738281 -0.109375 4.6875 -0.046875 C 4.644531 0.015625 4.582031 0.046875 4.5 0.046875 C 3.863281 0.015625 3.25 0 2.65625 0 C 2.125 0 1.539062 0.015625 0.90625 0.046875 Z M 0.90625 0.046875 "/></g></g></g><g fill="#270b04" fill-opacity="1"><g transform="translate(100.872316, 22.417855)"><g><path d="M 0.09375 0.046875 C 0 0.046875 -0.0664062 0.015625 -0.109375 -0.046875 C -0.148438 -0.109375 -0.171875 -0.1875 -0.171875 -0.28125 C -0.160156 -0.425781 -0.128906 -0.515625 -0.078125 -0.546875 C -0.0351562 -0.578125 0.015625 -0.59375 0.078125 -0.59375 C 0.148438 -0.59375 0.195312 -0.59375 0.21875 -0.59375 C 0.519531 -0.59375 0.738281 -0.664062 0.875 -0.8125 C 1.007812 -0.96875 1.117188 -1.140625 1.203125 -1.328125 C 1.285156 -1.523438 1.34375 -1.660156 1.375 -1.734375 L 3.96875 -7.859375 C 4.019531 -8.003906 4.046875 -8.125 4.046875 -8.21875 C 4.046875 -8.394531 3.976562 -8.519531 3.84375 -8.59375 C 3.707031 -8.675781 3.515625 -8.742188 3.265625 -8.796875 C 3.097656 -8.816406 2.992188 -8.84375 2.953125 -8.875 C 2.921875 -8.90625 2.90625 -8.988281 2.90625 -9.125 C 2.90625 -9.25 2.9375 -9.328125 3 -9.359375 C 3.0625 -9.398438 3.160156 -9.421875 3.296875 -9.421875 C 3.796875 -9.421875 4.1875 -9.382812 4.46875 -9.3125 C 4.757812 -9.238281 5.015625 -9.085938 5.234375 -8.859375 C 5.453125 -8.640625 5.65625 -8.304688 5.84375 -7.859375 L 8.328125 -1.734375 C 8.472656 -1.359375 8.613281 -1.078125 8.75 -0.890625 C 8.894531 -0.703125 9.101562 -0.601562 9.375 -0.59375 L 9.46875 -0.59375 C 9.570312 -0.59375 9.640625 -0.570312 9.671875 -0.53125 C 9.710938 -0.5 9.738281 -0.414062 9.75 -0.28125 C 9.75 -0.1875 9.726562 -0.109375 9.6875 -0.046875 C 9.644531 0.015625 9.578125 0.046875 9.484375 0.046875 C 8.847656 0.015625 8.304688 0 7.859375 0 C 7.265625 0 6.648438 0.015625 6.015625 0.046875 C 5.929688 0.046875 5.863281 0.015625 5.8125 -0.046875 C 5.769531 -0.109375 5.75 -0.1875 5.75 -0.28125 C 5.757812 -0.414062 5.785156 -0.5 5.828125 -0.53125 C 5.867188 -0.570312 5.9375 -0.59375 6.03125 -0.59375 C 6.375 -0.59375 6.613281 -0.625 6.75 -0.6875 C 6.882812 -0.75 6.953125 -0.863281 6.953125 -1.03125 C 6.953125 -1.164062 6.894531 -1.398438 6.78125 -1.734375 L 6.28125 -2.953125 L 2.625 -2.953125 C 2.375 -2.347656 2.226562 -1.992188 2.1875 -1.890625 C 2.15625 -1.796875 2.140625 -1.742188 2.140625 -1.734375 C 2.023438 -1.359375 1.96875 -1.113281 1.96875 -1 C 1.96875 -0.832031 2.039062 -0.722656 2.1875 -0.671875 C 2.332031 -0.617188 2.613281 -0.59375 3.03125 -0.59375 L 3.125 -0.59375 C 3.21875 -0.59375 3.285156 -0.570312 3.328125 -0.53125 C 3.367188 -0.5 3.394531 -0.414062 3.40625 -0.28125 C 3.40625 -0.1875 3.378906 -0.109375 3.328125 -0.046875 C 3.285156 0.015625 3.222656 0.046875 3.140625 0.046875 C 2.503906 0.015625 1.96875 0 1.53125 0 C 1.207031 0 0.726562 0.015625 0.09375 0.046875 Z M 2.90625 -3.59375 L 6 -3.59375 L 4.515625 -7.40625 L 4.46875 -7.40625 Z M 2.90625 -3.59375 "/></g></g></g><g fill="#270b04" fill-opacity="1"><g transform="translate(112.749722, 22.417855)"><g><path d="M 0.921875 0.046875 C 0.828125 0.046875 0.757812 0.015625 0.71875 -0.046875 C 0.675781 -0.109375 0.65625 -0.1875 0.65625 -0.28125 C 0.664062 -0.425781 0.691406 -0.515625 0.734375 -0.546875 C 0.785156 -0.578125 0.878906 -0.59375 1.015625 -0.59375 C 1.304688 -0.59375 1.515625 -0.644531 1.640625 -0.75 C 1.773438 -0.851562 1.859375 -0.972656 1.890625 -1.109375 C 1.921875 -1.253906 1.941406 -1.460938 1.953125 -1.734375 L 1.984375 -7.609375 C 1.984375 -7.898438 1.953125 -8.125 1.890625 -8.28125 C 1.828125 -8.4375 1.722656 -8.546875 1.578125 -8.609375 C 1.441406 -8.679688 1.242188 -8.742188 0.984375 -8.796875 C 0.816406 -8.816406 0.710938 -8.84375 0.671875 -8.875 C 0.640625 -8.90625 0.625 -8.988281 0.625 -9.125 C 0.625 -9.25 0.65625 -9.328125 0.71875 -9.359375 C 0.78125 -9.398438 0.878906 -9.421875 1.015625 -9.421875 C 1.628906 -9.421875 2.113281 -9.378906 2.46875 -9.296875 C 2.820312 -9.210938 3.132812 -9.0625 3.40625 -8.84375 C 3.675781 -8.625 3.976562 -8.296875 4.3125 -7.859375 L 8.359375 -2.53125 L 8.40625 -2.53125 L 8.375 -7.609375 C 8.363281 -7.867188 8.34375 -8.070312 8.3125 -8.21875 C 8.28125 -8.363281 8.195312 -8.488281 8.0625 -8.59375 C 7.9375 -8.695312 7.726562 -8.75 7.4375 -8.75 L 7.359375 -8.75 C 7.253906 -8.75 7.179688 -8.765625 7.140625 -8.796875 C 7.097656 -8.828125 7.070312 -8.914062 7.0625 -9.0625 C 7.0625 -9.144531 7.082031 -9.21875 7.125 -9.28125 C 7.175781 -9.34375 7.242188 -9.375 7.328125 -9.375 C 7.953125 -9.351562 8.425781 -9.34375 8.75 -9.34375 C 8.9375 -9.34375 9.296875 -9.347656 9.828125 -9.359375 L 10.140625 -9.375 C 10.222656 -9.375 10.285156 -9.34375 10.328125 -9.28125 C 10.378906 -9.21875 10.40625 -9.144531 10.40625 -9.0625 C 10.394531 -8.90625 10.363281 -8.8125 10.3125 -8.78125 C 10.257812 -8.757812 10.164062 -8.75 10.03125 -8.75 C 9.75 -8.75 9.539062 -8.695312 9.40625 -8.59375 C 9.269531 -8.488281 9.1875 -8.363281 9.15625 -8.21875 C 9.125 -8.070312 9.101562 -7.867188 9.09375 -7.609375 L 9.078125 -0.140625 C 9.066406 -0.015625 8.941406 0.046875 8.703125 0.046875 C 8.515625 0.046875 8.367188 -0.015625 8.265625 -0.140625 L 2.6875 -7.609375 L 2.65625 -7.609375 L 2.671875 -1.734375 C 2.679688 -1.460938 2.703125 -1.253906 2.734375 -1.109375 C 2.765625 -0.972656 2.847656 -0.851562 2.984375 -0.75 C 3.117188 -0.644531 3.328125 -0.59375 3.609375 -0.59375 L 3.703125 -0.59375 C 3.796875 -0.59375 3.863281 -0.570312 3.90625 -0.53125 C 3.957031 -0.5 3.988281 -0.414062 4 -0.28125 C 4 -0.1875 3.972656 -0.109375 3.921875 -0.046875 C 3.878906 0.015625 3.816406 0.046875 3.734375 0.046875 C 3.097656 0.015625 2.617188 0 2.296875 0 C 2.097656 0 1.75 0.0078125 1.25 0.03125 Z M 0.921875 0.046875 "/></g></g></g><g fill="#270b04" fill-opacity="1"><g transform="translate(125.869284, 22.417855)"><g><path d="M 0.890625 0.046875 C 0.804688 0.046875 0.742188 0.015625 0.703125 -0.046875 C 0.660156 -0.109375 0.640625 -0.1875 0.640625 -0.28125 C 0.648438 -0.425781 0.675781 -0.515625 0.71875 -0.546875 C 0.769531 -0.578125 0.863281 -0.59375 1 -0.59375 C 1.289062 -0.59375 1.503906 -0.644531 1.640625 -0.75 C 1.773438 -0.851562 1.859375 -0.976562 1.890625 -1.125 C 1.929688 -1.28125 1.957031 -1.484375 1.96875 -1.734375 L 1.96875 -7.609375 C 1.957031 -7.847656 1.929688 -8.046875 1.890625 -8.203125 C 1.859375 -8.359375 1.773438 -8.488281 1.640625 -8.59375 C 1.503906 -8.695312 1.289062 -8.75 1 -8.75 L 0.921875 -8.75 C 0.816406 -8.75 0.742188 -8.765625 0.703125 -8.796875 C 0.671875 -8.828125 0.648438 -8.914062 0.640625 -9.0625 C 0.640625 -9.144531 0.660156 -9.21875 0.703125 -9.28125 C 0.742188 -9.34375 0.804688 -9.375 0.890625 -9.375 C 1.535156 -9.351562 2.125 -9.34375 2.65625 -9.34375 L 4.953125 -9.34375 C 5.898438 -9.34375 6.757812 -9.148438 7.53125 -8.765625 C 8.3125 -8.390625 8.925781 -7.84375 9.375 -7.125 C 9.820312 -6.414062 10.046875 -5.578125 10.046875 -4.609375 C 10.046875 -3.609375 9.789062 -2.757812 9.28125 -2.0625 C 8.769531 -1.363281 8.109375 -0.84375 7.296875 -0.5 C 6.484375 -0.164062 5.613281 0 4.6875 0 L 2.65625 0 C 2.125 0 1.535156 0.015625 0.890625 0.046875 Z M 4.90625 -0.546875 C 6.0625 -0.546875 6.90625 -0.898438 7.4375 -1.609375 C 7.976562 -2.328125 8.25 -3.328125 8.25 -4.609375 C 8.25 -5.421875 8.101562 -6.144531 7.8125 -6.78125 C 7.53125 -7.414062 7.109375 -7.910156 6.546875 -8.265625 C 5.992188 -8.617188 5.34375 -8.796875 4.59375 -8.796875 L 3.4375 -8.796875 L 3.4375 -1.546875 C 3.4375 -1.171875 3.550781 -0.910156 3.78125 -0.765625 C 4.007812 -0.617188 4.382812 -0.546875 4.90625 -0.546875 Z M 4.90625 -0.546875 "/></g></g></g><g fill="#270b04" fill-opacity="1"><g transform="translate(138.855761, 22.417855)"><g><path d="M 5.296875 0.296875 C 4.460938 0.296875 3.695312 0.0976562 3 -0.296875 C 2.300781 -0.703125 1.742188 -1.273438 1.328125 -2.015625 C 0.921875 -2.753906 0.71875 -3.617188 0.71875 -4.609375 C 0.71875 -5.597656 0.914062 -6.472656 1.3125 -7.234375 C 1.707031 -7.992188 2.269531 -8.582031 3 -9 C 3.726562 -9.425781 4.582031 -9.640625 5.5625 -9.640625 C 6.414062 -9.640625 7.171875 -9.46875 7.828125 -9.125 C 8.484375 -8.78125 8.8125 -8.253906 8.8125 -7.546875 C 8.820312 -7.097656 8.6875 -6.71875 8.40625 -6.40625 C 8.132812 -6.101562 7.769531 -5.953125 7.3125 -5.953125 C 7.132812 -5.953125 6.984375 -5.984375 6.859375 -6.046875 C 6.734375 -6.109375 6.640625 -6.179688 6.578125 -6.265625 C 6.523438 -6.359375 6.503906 -6.429688 6.515625 -6.484375 C 6.515625 -6.503906 6.582031 -6.554688 6.71875 -6.640625 C 6.851562 -6.734375 6.972656 -6.859375 7.078125 -7.015625 C 7.191406 -7.171875 7.25 -7.363281 7.25 -7.59375 C 7.25 -8.03125 7.097656 -8.378906 6.796875 -8.640625 C 6.492188 -8.910156 6.078125 -9.046875 5.546875 -9.046875 C 4.941406 -9.046875 4.40625 -8.875 3.9375 -8.53125 C 3.46875 -8.1875 3.101562 -7.6875 2.84375 -7.03125 C 2.582031 -6.375 2.453125 -5.59375 2.453125 -4.6875 C 2.453125 -3.894531 2.59375 -3.175781 2.875 -2.53125 C 3.15625 -1.882812 3.550781 -1.367188 4.0625 -0.984375 C 4.582031 -0.609375 5.171875 -0.421875 5.828125 -0.421875 C 6.359375 -0.421875 6.8125 -0.53125 7.1875 -0.75 C 7.570312 -0.976562 7.921875 -1.335938 8.234375 -1.828125 C 8.273438 -1.921875 8.34375 -1.96875 8.4375 -1.96875 C 8.507812 -1.96875 8.597656 -1.9375 8.703125 -1.875 C 8.859375 -1.769531 8.9375 -1.660156 8.9375 -1.546875 C 8.9375 -1.492188 8.914062 -1.445312 8.875 -1.40625 C 8.5 -0.9375 8.144531 -0.578125 7.8125 -0.328125 C 7.488281 -0.0859375 7.132812 0.0703125 6.75 0.15625 C 6.363281 0.25 5.878906 0.296875 5.296875 0.296875 Z M 5.296875 0.296875 "/></g></g></g><g fill="#270b04" fill-opacity="1"><g transform="translate(150.526144, 22.417855)"><g><path d="M 0.90625 0.046875 C 0.8125 0.046875 0.742188 0.015625 0.703125 -0.046875 C 0.660156 -0.109375 0.640625 -0.1875 0.640625 -0.28125 C 0.648438 -0.425781 0.675781 -0.515625 0.71875 -0.546875 C 0.769531 -0.578125 0.863281 -0.59375 1 -0.59375 C 1.289062 -0.59375 1.503906 -0.644531 1.640625 -0.75 C 1.773438 -0.851562 1.859375 -0.976562 1.890625 -1.125 C 1.929688 -1.28125 1.957031 -1.484375 1.96875 -1.734375 L 1.96875 -7.59375 C 1.957031 -7.84375 1.929688 -8.039062 1.890625 -8.1875 C 1.859375 -8.34375 1.773438 -8.472656 1.640625 -8.578125 C 1.503906 -8.691406 1.289062 -8.75 1 -8.75 L 0.921875 -8.75 C 0.816406 -8.75 0.742188 -8.765625 0.703125 -8.796875 C 0.671875 -8.828125 0.648438 -8.914062 0.640625 -9.0625 C 0.640625 -9.144531 0.660156 -9.21875 0.703125 -9.28125 C 0.742188 -9.34375 0.8125 -9.375 0.90625 -9.375 C 1.539062 -9.351562 2.125 -9.34375 2.65625 -9.34375 L 5.203125 -9.34375 C 5.960938 -9.332031 6.597656 -9.207031 7.109375 -8.96875 C 7.617188 -8.738281 7.988281 -8.441406 8.21875 -8.078125 C 8.457031 -7.722656 8.578125 -7.335938 8.578125 -6.921875 C 8.578125 -6.378906 8.363281 -5.878906 7.9375 -5.421875 C 7.507812 -4.972656 6.925781 -4.648438 6.1875 -4.453125 L 6.4375 -4.046875 C 6.851562 -3.378906 7.226562 -2.804688 7.5625 -2.328125 C 7.894531 -1.847656 8.257812 -1.398438 8.65625 -0.984375 C 8.9375 -0.765625 9.234375 -0.632812 9.546875 -0.59375 C 9.566406 -0.59375 9.609375 -0.585938 9.671875 -0.578125 C 9.742188 -0.578125 9.800781 -0.550781 9.84375 -0.5 C 9.882812 -0.445312 9.90625 -0.375 9.90625 -0.28125 C 9.90625 -0.1875 9.882812 -0.109375 9.84375 -0.046875 C 9.800781 0.015625 9.734375 0.046875 9.640625 0.046875 L 9.265625 0.03125 C 8.828125 0.0078125 8.507812 0 8.3125 0 C 7.914062 -0.0820312 7.578125 -0.222656 7.296875 -0.421875 C 7.015625 -0.617188 6.738281 -0.90625 6.46875 -1.28125 C 6.175781 -1.65625 5.773438 -2.269531 5.265625 -3.125 L 5 -3.546875 C 4.851562 -3.773438 4.707031 -3.929688 4.5625 -4.015625 C 4.425781 -4.097656 4.191406 -4.140625 3.859375 -4.140625 L 3.4375 -4.140625 L 3.4375 -1.734375 C 3.445312 -1.484375 3.46875 -1.28125 3.5 -1.125 C 3.53125 -0.976562 3.613281 -0.851562 3.75 -0.75 C 3.894531 -0.644531 4.109375 -0.59375 4.390625 -0.59375 L 4.484375 -0.59375 C 4.566406 -0.59375 4.628906 -0.570312 4.671875 -0.53125 C 4.722656 -0.5 4.753906 -0.414062 4.765625 -0.28125 C 4.765625 -0.1875 4.738281 -0.109375 4.6875 -0.046875 C 4.644531 0.015625 4.582031 0.046875 4.5 0.046875 C 3.863281 0.015625 3.25 0 2.65625 0 C 2.125 0 1.539062 0.015625 0.90625 0.046875 Z M 4.734375 -4.71875 C 6.203125 -4.71875 6.9375 -5.410156 6.9375 -6.796875 C 6.9375 -7.359375 6.742188 -7.832031 6.359375 -8.21875 C 5.972656 -8.601562 5.34375 -8.796875 4.46875 -8.796875 C 4.1875 -8.796875 3.96875 -8.757812 3.8125 -8.6875 C 3.664062 -8.613281 3.566406 -8.492188 3.515625 -8.328125 C 3.460938 -8.160156 3.4375 -7.90625 3.4375 -7.5625 L 3.4375 -4.71875 Z M 4.734375 -4.71875 "/></g></g></g><g fill="#270b04" fill-opacity="1"><g transform="translate(162.669732, 22.417855)"><g><path d="M 0.09375 0.046875 C 0 0.046875 -0.0664062 0.015625 -0.109375 -0.046875 C -0.148438 -0.109375 -0.171875 -0.1875 -0.171875 -0.28125 C -0.160156 -0.425781 -0.128906 -0.515625 -0.078125 -0.546875 C -0.0351562 -0.578125 0.015625 -0.59375 0.078125 -0.59375 C 0.148438 -0.59375 0.195312 -0.59375 0.21875 -0.59375 C 0.519531 -0.59375 0.738281 -0.664062 0.875 -0.8125 C 1.007812 -0.96875 1.117188 -1.140625 1.203125 -1.328125 C 1.285156 -1.523438 1.34375 -1.660156 1.375 -1.734375 L 3.96875 -7.859375 C 4.019531 -8.003906 4.046875 -8.125 4.046875 -8.21875 C 4.046875 -8.394531 3.976562 -8.519531 3.84375 -8.59375 C 3.707031 -8.675781 3.515625 -8.742188 3.265625 -8.796875 C 3.097656 -8.816406 2.992188 -8.84375 2.953125 -8.875 C 2.921875 -8.90625 2.90625 -8.988281 2.90625 -9.125 C 2.90625 -9.25 2.9375 -9.328125 3 -9.359375 C 3.0625 -9.398438 3.160156 -9.421875 3.296875 -9.421875 C 3.796875 -9.421875 4.1875 -9.382812 4.46875 -9.3125 C 4.757812 -9.238281 5.015625 -9.085938 5.234375 -8.859375 C 5.453125 -8.640625 5.65625 -8.304688 5.84375 -7.859375 L 8.328125 -1.734375 C 8.472656 -1.359375 8.613281 -1.078125 8.75 -0.890625 C 8.894531 -0.703125 9.101562 -0.601562 9.375 -0.59375 L 9.46875 -0.59375 C 9.570312 -0.59375 9.640625 -0.570312 9.671875 -0.53125 C 9.710938 -0.5 9.738281 -0.414062 9.75 -0.28125 C 9.75 -0.1875 9.726562 -0.109375 9.6875 -0.046875 C 9.644531 0.015625 9.578125 0.046875 9.484375 0.046875 C 8.847656 0.015625 8.304688 0 7.859375 0 C 7.265625 0 6.648438 0.015625 6.015625 0.046875 C 5.929688 0.046875 5.863281 0.015625 5.8125 -0.046875 C 5.769531 -0.109375 5.75 -0.1875 5.75 -0.28125 C 5.757812 -0.414062 5.785156 -0.5 5.828125 -0.53125 C 5.867188 -0.570312 5.9375 -0.59375 6.03125 -0.59375 C 6.375 -0.59375 6.613281 -0.625 6.75 -0.6875 C 6.882812 -0.75 6.953125 -0.863281 6.953125 -1.03125 C 6.953125 -1.164062 6.894531 -1.398438 6.78125 -1.734375 L 6.28125 -2.953125 L 2.625 -2.953125 C 2.375 -2.347656 2.226562 -1.992188 2.1875 -1.890625 C 2.15625 -1.796875 2.140625 -1.742188 2.140625 -1.734375 C 2.023438 -1.359375 1.96875 -1.113281 1.96875 -1 C 1.96875 -0.832031 2.039062 -0.722656 2.1875 -0.671875 C 2.332031 -0.617188 2.613281 -0.59375 3.03125 -0.59375 L 3.125 -0.59375 C 3.21875 -0.59375 3.285156 -0.570312 3.328125 -0.53125 C 3.367188 -0.5 3.394531 -0.414062 3.40625 -0.28125 C 3.40625 -0.1875 3.378906 -0.109375 3.328125 -0.046875 C 3.285156 0.015625 3.222656 0.046875 3.140625 0.046875 C 2.503906 0.015625 1.96875 0 1.53125 0 C 1.207031 0 0.726562 0.015625 0.09375 0.046875 Z M 2.90625 -3.59375 L 6 -3.59375 L 4.515625 -7.40625 L 4.46875 -7.40625 Z M 2.90625 -3.59375 "/></g></g></g><g fill="#270b04" fill-opacity="1"><g transform="translate(174.547142, 22.417855)"><g><path d="M 0.890625 0.046875 C 0.804688 0.046875 0.742188 0.015625 0.703125 -0.046875 C 0.660156 -0.109375 0.640625 -0.1875 0.640625 -0.28125 C 0.648438 -0.425781 0.675781 -0.515625 0.71875 -0.546875 C 0.769531 -0.578125 0.863281 -0.59375 1 -0.59375 C 1.289062 -0.59375 1.503906 -0.644531 1.640625 -0.75 C 1.773438 -0.851562 1.859375 -0.976562 1.890625 -1.125 C 1.929688 -1.28125 1.957031 -1.484375 1.96875 -1.734375 L 1.96875 -7.609375 C 1.957031 -7.847656 1.929688 -8.046875 1.890625 -8.203125 C 1.859375 -8.359375 1.773438 -8.488281 1.640625 -8.59375 C 1.503906 -8.695312 1.289062 -8.75 1 -8.75 L 0.921875 -8.75 C 0.816406 -8.75 0.742188 -8.765625 0.703125 -8.796875 C 0.671875 -8.828125 0.648438 -8.914062 0.640625 -9.0625 C 0.640625 -9.144531 0.660156 -9.21875 0.703125 -9.28125 C 0.742188 -9.34375 0.804688 -9.375 0.890625 -9.375 C 1.523438 -9.351562 2.113281 -9.34375 2.65625 -9.34375 L 6.921875 -9.34375 C 7.179688 -9.34375 7.3125 -9.222656 7.3125 -8.984375 L 7.359375 -6.90625 C 7.359375 -6.820312 7.3125 -6.75 7.21875 -6.6875 C 7.132812 -6.632812 7.046875 -6.609375 6.953125 -6.609375 C 6.835938 -6.609375 6.734375 -6.628906 6.640625 -6.671875 C 6.546875 -6.722656 6.492188 -6.789062 6.484375 -6.875 C 6.410156 -7.363281 6.328125 -7.734375 6.234375 -7.984375 C 6.140625 -8.234375 6 -8.421875 5.8125 -8.546875 C 5.632812 -8.671875 5.378906 -8.738281 5.046875 -8.75 L 3.4375 -8.75 L 3.4375 -4.890625 L 6.078125 -4.890625 C 6.160156 -4.890625 6.21875 -4.851562 6.25 -4.78125 C 6.289062 -4.71875 6.3125 -4.644531 6.3125 -4.5625 C 6.3125 -4.476562 6.289062 -4.40625 6.25 -4.34375 C 6.21875 -4.289062 6.160156 -4.265625 6.078125 -4.265625 L 3.4375 -4.265625 L 3.4375 -1.734375 C 3.445312 -1.484375 3.46875 -1.28125 3.5 -1.125 C 3.53125 -0.976562 3.613281 -0.851562 3.75 -0.75 C 3.894531 -0.644531 4.109375 -0.59375 4.390625 -0.59375 L 4.484375 -0.59375 C 4.566406 -0.59375 4.628906 -0.570312 4.671875 -0.53125 C 4.722656 -0.5 4.753906 -0.414062 4.765625 -0.28125 C 4.765625 -0.1875 4.738281 -0.109375 4.6875 -0.046875 C 4.644531 0.015625 4.582031 0.046875 4.5 0.046875 C 3.863281 0.015625 3.25 0 2.65625 0 C 2.113281 0 1.523438 0.015625 0.890625 0.046875 Z M 0.890625 0.046875 "/></g></g></g><g fill="#270b04" fill-opacity="1"><g transform="translate(184.531742, 22.417855)"><g><path d="M 2.65625 0.046875 C 2.5625 0.046875 2.488281 0.015625 2.4375 -0.046875 C 2.394531 -0.109375 2.375 -0.1875 2.375 -0.28125 C 2.382812 -0.425781 2.414062 -0.515625 2.46875 -0.546875 C 2.519531 -0.578125 2.613281 -0.59375 2.75 -0.59375 C 3.039062 -0.59375 3.253906 -0.644531 3.390625 -0.75 C 3.523438 -0.851562 3.609375 -0.976562 3.640625 -1.125 C 3.679688 -1.28125 3.707031 -1.484375 3.71875 -1.734375 L 3.71875 -8.796875 L 2.6875 -8.796875 C 2.351562 -8.785156 2.09375 -8.710938 1.90625 -8.578125 C 1.726562 -8.441406 1.59375 -8.242188 1.5 -7.984375 C 1.40625 -7.722656 1.320312 -7.347656 1.25 -6.859375 C 1.25 -6.785156 1.191406 -6.722656 1.078125 -6.671875 C 0.972656 -6.617188 0.859375 -6.59375 0.734375 -6.59375 C 0.648438 -6.59375 0.570312 -6.617188 0.5 -6.671875 C 0.425781 -6.734375 0.390625 -6.804688 0.390625 -6.890625 L 0.421875 -8.984375 C 0.421875 -9.222656 0.554688 -9.34375 0.828125 -9.34375 L 8.0625 -9.34375 C 8.320312 -9.34375 8.453125 -9.222656 8.453125 -8.984375 L 8.515625 -6.890625 C 8.515625 -6.804688 8.472656 -6.734375 8.390625 -6.671875 C 8.304688 -6.617188 8.222656 -6.59375 8.140625 -6.59375 C 8.015625 -6.59375 7.898438 -6.617188 7.796875 -6.671875 C 7.703125 -6.722656 7.648438 -6.785156 7.640625 -6.859375 C 7.554688 -7.359375 7.46875 -7.734375 7.375 -7.984375 C 7.289062 -8.242188 7.15625 -8.441406 6.96875 -8.578125 C 6.78125 -8.710938 6.519531 -8.785156 6.1875 -8.796875 L 5.171875 -8.796875 L 5.171875 -1.734375 C 5.179688 -1.484375 5.203125 -1.28125 5.234375 -1.125 C 5.273438 -0.976562 5.363281 -0.851562 5.5 -0.75 C 5.644531 -0.644531 5.859375 -0.59375 6.140625 -0.59375 L 6.234375 -0.59375 C 6.316406 -0.59375 6.378906 -0.570312 6.421875 -0.53125 C 6.472656 -0.5 6.503906 -0.414062 6.515625 -0.28125 C 6.515625 -0.1875 6.488281 -0.109375 6.4375 -0.046875 C 6.394531 0.015625 6.332031 0.046875 6.25 0.046875 C 5.613281 0.015625 5.03125 0 4.5 0 C 3.90625 0 3.289062 0.015625 2.65625 0.046875 Z M 2.65625 0.046875 "/></g></g></g><g fill="#270b04" fill-opacity="1"><g transform="translate(195.625415, 22.417855)"><g><path d="M 0.890625 0.046875 C 0.804688 0.046875 0.742188 0.015625 0.703125 -0.046875 C 0.660156 -0.109375 0.640625 -0.1875 0.640625 -0.28125 C 0.648438 -0.425781 0.675781 -0.515625 0.71875 -0.546875 C 0.769531 -0.578125 0.863281 -0.59375 1 -0.59375 C 1.289062 -0.59375 1.503906 -0.644531 1.640625 -0.75 C 1.773438 -0.851562 1.859375 -0.976562 1.890625 -1.125 C 1.929688 -1.28125 1.957031 -1.484375 1.96875 -1.734375 L 1.96875 -7.609375 C 1.957031 -7.847656 1.929688 -8.046875 1.890625 -8.203125 C 1.859375 -8.359375 1.773438 -8.488281 1.640625 -8.59375 C 1.503906 -8.695312 1.289062 -8.75 1 -8.75 L 0.921875 -8.75 C 0.816406 -8.75 0.742188 -8.765625 0.703125 -8.796875 C 0.671875 -8.828125 0.648438 -8.914062 0.640625 -9.0625 C 0.640625 -9.144531 0.660156 -9.21875 0.703125 -9.28125 C 0.742188 -9.34375 0.804688 -9.375 0.890625 -9.375 C 1.535156 -9.351562 2.125 -9.34375 2.65625 -9.34375 L 7.296875 -9.34375 C 7.546875 -9.34375 7.671875 -9.222656 7.671875 -8.984375 L 7.71875 -6.90625 C 7.71875 -6.820312 7.671875 -6.75 7.578125 -6.6875 C 7.492188 -6.632812 7.410156 -6.609375 7.328125 -6.609375 C 7.203125 -6.609375 7.09375 -6.628906 7 -6.671875 C 6.914062 -6.722656 6.867188 -6.789062 6.859375 -6.875 C 6.785156 -7.363281 6.703125 -7.734375 6.609375 -7.984375 C 6.515625 -8.234375 6.375 -8.421875 6.1875 -8.546875 C 6.007812 -8.671875 5.753906 -8.738281 5.421875 -8.75 L 3.4375 -8.75 L 3.4375 -4.984375 L 6.109375 -4.984375 C 6.179688 -4.972656 6.234375 -4.9375 6.265625 -4.875 C 6.304688 -4.8125 6.328125 -4.734375 6.328125 -4.640625 C 6.328125 -4.566406 6.304688 -4.5 6.265625 -4.4375 C 6.234375 -4.375 6.179688 -4.34375 6.109375 -4.34375 L 3.4375 -4.34375 L 3.4375 -1.546875 C 3.457031 -1.347656 3.476562 -1.1875 3.5 -1.0625 C 3.53125 -0.9375 3.617188 -0.820312 3.765625 -0.71875 C 3.921875 -0.625 4.15625 -0.582031 4.46875 -0.59375 L 5.828125 -0.59375 C 6.171875 -0.601562 6.429688 -0.660156 6.609375 -0.765625 C 6.785156 -0.867188 6.925781 -1.023438 7.03125 -1.234375 C 7.132812 -1.453125 7.257812 -1.8125 7.40625 -2.3125 C 7.476562 -2.488281 7.648438 -2.554688 7.921875 -2.515625 C 8.015625 -2.492188 8.097656 -2.453125 8.171875 -2.390625 C 8.242188 -2.335938 8.273438 -2.265625 8.265625 -2.171875 L 7.96875 -0.3125 C 7.945312 -0.1875 7.90625 -0.101562 7.84375 -0.0625 C 7.78125 -0.0195312 7.679688 0 7.546875 0 L 2.65625 0 C 2.125 0 1.535156 0.015625 0.890625 0.046875 Z M 0.890625 0.046875 "/></g></g></g><g fill="#270b04" fill-opacity="1"><g transform="translate(206.630361, 22.417855)"><g><path d="M 0.890625 0.046875 C 0.804688 0.046875 0.742188 0.015625 0.703125 -0.046875 C 0.660156 -0.109375 0.640625 -0.1875 0.640625 -0.28125 C 0.648438 -0.425781 0.675781 -0.515625 0.71875 -0.546875 C 0.769531 -0.578125 0.863281 -0.59375 1 -0.59375 C 1.289062 -0.59375 1.503906 -0.644531 1.640625 -0.75 C 1.773438 -0.851562 1.859375 -0.976562 1.890625 -1.125 C 1.929688 -1.28125 1.957031 -1.484375 1.96875 -1.734375 L 1.96875 -7.609375 C 1.957031 -7.847656 1.929688 -8.046875 1.890625 -8.203125 C 1.859375 -8.359375 1.773438 -8.488281 1.640625 -8.59375 C 1.503906 -8.695312 1.289062 -8.75 1 -8.75 L 0.921875 -8.75 C 0.816406 -8.75 0.742188 -8.765625 0.703125 -8.796875 C 0.671875 -8.828125 0.648438 -8.914062 0.640625 -9.0625 C 0.640625 -9.144531 0.660156 -9.21875 0.703125 -9.28125 C 0.742188 -9.34375 0.804688 -9.375 0.890625 -9.375 C 1.535156 -9.351562 2.125 -9.34375 2.65625 -9.34375 L 4.953125 -9.34375 C 5.898438 -9.34375 6.757812 -9.148438 7.53125 -8.765625 C 8.3125 -8.390625 8.925781 -7.84375 9.375 -7.125 C 9.820312 -6.414062 10.046875 -5.578125 10.046875 -4.609375 C 10.046875 -3.609375 9.789062 -2.757812 9.28125 -2.0625 C 8.769531 -1.363281 8.109375 -0.84375 7.296875 -0.5 C 6.484375 -0.164062 5.613281 0 4.6875 0 L 2.65625 0 C 2.125 0 1.535156 0.015625 0.890625 0.046875 Z M 4.90625 -0.546875 C 6.0625 -0.546875 6.90625 -0.898438 7.4375 -1.609375 C 7.976562 -2.328125 8.25 -3.328125 8.25 -4.609375 C 8.25 -5.421875 8.101562 -6.144531 7.8125 -6.78125 C 7.53125 -7.414062 7.109375 -7.910156 6.546875 -8.265625 C 5.992188 -8.617188 5.34375 -8.796875 4.59375 -8.796875 L 3.4375 -8.796875 L 3.4375 -1.546875 C 3.4375 -1.171875 3.550781 -0.910156 3.78125 -0.765625 C 4.007812 -0.617188 4.382812 -0.546875 4.90625 -0.546875 Z M 4.90625 -0.546875 "/></g></g></g><g fill="#270b04" fill-opacity="1"><g transform="translate(128.903727, 40.071059)"><g><path d="M 0.71875 0.03125 C 0.644531 0.03125 0.585938 0.00390625 0.546875 -0.046875 C 0.515625 -0.0976562 0.5 -0.15625 0.5 -0.21875 C 0.507812 -0.34375 0.535156 -0.414062 0.578125 -0.4375 C 0.617188 -0.457031 0.691406 -0.46875 0.796875 -0.46875 C 1.023438 -0.46875 1.191406 -0.507812 1.296875 -0.59375 C 1.410156 -0.675781 1.476562 -0.773438 1.5 -0.890625 C 1.53125 -1.015625 1.550781 -1.175781 1.5625 -1.375 L 1.5625 -6.046875 C 1.550781 -6.242188 1.53125 -6.398438 1.5 -6.515625 C 1.476562 -6.640625 1.410156 -6.742188 1.296875 -6.828125 C 1.191406 -6.910156 1.023438 -6.953125 0.796875 -6.953125 L 0.734375 -6.953125 C 0.648438 -6.953125 0.59375 -6.960938 0.5625 -6.984375 C 0.53125 -7.015625 0.507812 -7.085938 0.5 -7.203125 C 0.5 -7.273438 0.515625 -7.332031 0.546875 -7.375 C 0.585938 -7.425781 0.644531 -7.453125 0.71875 -7.453125 C 1.226562 -7.429688 1.691406 -7.421875 2.109375 -7.421875 C 2.578125 -7.421875 3.066406 -7.429688 3.578125 -7.453125 C 3.648438 -7.453125 3.703125 -7.425781 3.734375 -7.375 C 3.765625 -7.332031 3.78125 -7.273438 3.78125 -7.203125 C 3.78125 -7.085938 3.757812 -7.015625 3.71875 -6.984375 C 3.675781 -6.960938 3.601562 -6.953125 3.5 -6.953125 C 3.269531 -6.953125 3.097656 -6.910156 2.984375 -6.828125 C 2.878906 -6.742188 2.8125 -6.640625 2.78125 -6.515625 C 2.75 -6.398438 2.734375 -6.242188 2.734375 -6.046875 L 2.734375 -3.96875 L 6.421875 -3.96875 L 6.421875 -6.046875 C 6.410156 -6.242188 6.390625 -6.398438 6.359375 -6.515625 C 6.335938 -6.640625 6.269531 -6.742188 6.15625 -6.828125 C 6.050781 -6.910156 5.882812 -6.953125 5.65625 -6.953125 L 5.59375 -6.953125 C 5.507812 -6.953125 5.445312 -6.960938 5.40625 -6.984375 C 5.375 -7.015625 5.359375 -7.085938 5.359375 -7.203125 C 5.359375 -7.273438 5.375 -7.332031 5.40625 -7.375 C 5.445312 -7.425781 5.5 -7.453125 5.5625 -7.453125 C 6.070312 -7.429688 6.5625 -7.421875 7.03125 -7.421875 C 7.46875 -7.421875 7.9375 -7.429688 8.4375 -7.453125 C 8.507812 -7.453125 8.5625 -7.425781 8.59375 -7.375 C 8.625 -7.332031 8.640625 -7.273438 8.640625 -7.203125 C 8.640625 -7.085938 8.613281 -7.015625 8.5625 -6.984375 C 8.519531 -6.960938 8.453125 -6.953125 8.359375 -6.953125 C 8.128906 -6.953125 7.957031 -6.910156 7.84375 -6.828125 C 7.726562 -6.742188 7.65625 -6.640625 7.625 -6.515625 C 7.601562 -6.398438 7.585938 -6.242188 7.578125 -6.046875 L 7.578125 -1.375 C 7.585938 -1.175781 7.601562 -1.015625 7.625 -0.890625 C 7.65625 -0.773438 7.726562 -0.675781 7.84375 -0.59375 C 7.957031 -0.507812 8.128906 -0.46875 8.359375 -0.46875 L 8.421875 -0.46875 C 8.492188 -0.46875 8.546875 -0.453125 8.578125 -0.421875 C 8.617188 -0.398438 8.640625 -0.332031 8.640625 -0.21875 C 8.640625 -0.15625 8.625 -0.0976562 8.59375 -0.046875 C 8.5625 0.00390625 8.507812 0.03125 8.4375 0.03125 C 7.9375 0.0078125 7.46875 0 7.03125 0 C 6.5625 0 6.070312 0.0078125 5.5625 0.03125 C 5.5 0.03125 5.445312 0.00390625 5.40625 -0.046875 C 5.375 -0.0976562 5.359375 -0.15625 5.359375 -0.21875 C 5.359375 -0.34375 5.378906 -0.414062 5.421875 -0.4375 C 5.472656 -0.457031 5.550781 -0.46875 5.65625 -0.46875 C 5.882812 -0.46875 6.050781 -0.507812 6.15625 -0.59375 C 6.269531 -0.675781 6.335938 -0.773438 6.359375 -0.890625 C 6.390625 -1.015625 6.410156 -1.175781 6.421875 -1.375 L 6.421875 -3.453125 L 2.734375 -3.453125 L 2.734375 -1.375 C 2.734375 -1.175781 2.75 -1.015625 2.78125 -0.890625 C 2.8125 -0.773438 2.878906 -0.675781 2.984375 -0.59375 C 3.097656 -0.507812 3.269531 -0.46875 3.5 -0.46875 L 3.5625 -0.46875 C 3.644531 -0.46875 3.703125 -0.453125 3.734375 -0.421875 C 3.765625 -0.398438 3.78125 -0.332031 3.78125 -0.21875 C 3.78125 -0.15625 3.765625 -0.0976562 3.734375 -0.046875 C 3.703125 0.00390625 3.648438 0.03125 3.578125 0.03125 C 3.078125 0.0078125 2.59375 0 2.125 0 C 1.695312 0 1.226562 0.0078125 0.71875 0.03125 Z M 0.71875 0.03125 "/></g></g></g><g fill="#270b04" fill-opacity="1"><g transform="translate(139.813472, 40.071059)"><g><path d="M 0.078125 0.03125 C 0.00390625 0.03125 -0.046875 0.00390625 -0.078125 -0.046875 C -0.117188 -0.0976562 -0.140625 -0.15625 -0.140625 -0.21875 C -0.128906 -0.34375 -0.101562 -0.414062 -0.0625 -0.4375 C -0.03125 -0.457031 0.0078125 -0.46875 0.0625 -0.46875 C 0.125 -0.46875 0.160156 -0.46875 0.171875 -0.46875 C 0.410156 -0.46875 0.582031 -0.523438 0.6875 -0.640625 C 0.800781 -0.765625 0.890625 -0.90625 0.953125 -1.0625 C 1.023438 -1.21875 1.070312 -1.320312 1.09375 -1.375 L 3.15625 -6.25 C 3.195312 -6.363281 3.21875 -6.457031 3.21875 -6.53125 C 3.21875 -6.664062 3.160156 -6.765625 3.046875 -6.828125 C 2.941406 -6.898438 2.789062 -6.953125 2.59375 -6.984375 C 2.46875 -7.015625 2.390625 -7.039062 2.359375 -7.0625 C 2.328125 -7.082031 2.3125 -7.148438 2.3125 -7.265625 C 2.3125 -7.359375 2.332031 -7.421875 2.375 -7.453125 C 2.425781 -7.484375 2.507812 -7.5 2.625 -7.5 C 3.019531 -7.5 3.332031 -7.46875 3.5625 -7.40625 C 3.789062 -7.34375 3.988281 -7.222656 4.15625 -7.046875 C 4.332031 -6.867188 4.492188 -6.601562 4.640625 -6.25 L 6.625 -1.375 C 6.738281 -1.070312 6.847656 -0.847656 6.953125 -0.703125 C 7.066406 -0.554688 7.234375 -0.476562 7.453125 -0.46875 L 7.53125 -0.46875 C 7.601562 -0.46875 7.65625 -0.453125 7.6875 -0.421875 C 7.71875 -0.398438 7.738281 -0.332031 7.75 -0.21875 C 7.75 -0.15625 7.726562 -0.0976562 7.6875 -0.046875 C 7.65625 0.00390625 7.609375 0.03125 7.546875 0.03125 C 7.035156 0.0078125 6.601562 0 6.25 0 C 5.78125 0 5.289062 0.0078125 4.78125 0.03125 C 4.71875 0.03125 4.664062 0.00390625 4.625 -0.046875 C 4.59375 -0.0976562 4.578125 -0.15625 4.578125 -0.21875 C 4.585938 -0.332031 4.609375 -0.398438 4.640625 -0.421875 C 4.671875 -0.453125 4.722656 -0.46875 4.796875 -0.46875 C 5.066406 -0.46875 5.253906 -0.492188 5.359375 -0.546875 C 5.472656 -0.597656 5.53125 -0.691406 5.53125 -0.828125 C 5.53125 -0.921875 5.484375 -1.101562 5.390625 -1.375 L 4.984375 -2.359375 L 2.078125 -2.359375 C 1.878906 -1.867188 1.765625 -1.582031 1.734375 -1.5 C 1.710938 -1.425781 1.703125 -1.382812 1.703125 -1.375 C 1.609375 -1.070312 1.5625 -0.878906 1.5625 -0.796875 C 1.5625 -0.660156 1.617188 -0.570312 1.734375 -0.53125 C 1.859375 -0.488281 2.082031 -0.46875 2.40625 -0.46875 L 2.484375 -0.46875 C 2.554688 -0.46875 2.609375 -0.453125 2.640625 -0.421875 C 2.671875 -0.398438 2.691406 -0.332031 2.703125 -0.21875 C 2.703125 -0.15625 2.679688 -0.0976562 2.640625 -0.046875 C 2.609375 0.00390625 2.5625 0.03125 2.5 0.03125 C 1.988281 0.0078125 1.5625 0 1.21875 0 C 0.957031 0 0.578125 0.0078125 0.078125 0.03125 Z M 2.3125 -2.859375 L 4.78125 -2.859375 L 3.59375 -5.890625 L 3.546875 -5.890625 Z M 2.3125 -2.859375 "/></g></g></g><g fill="#270b04" fill-opacity="1"><g transform="translate(149.263879, 40.071059)"><g><path d="M 3.578125 0.125 C 3.335938 -0.519531 2.960938 -1.546875 2.453125 -2.953125 C 1.941406 -4.359375 1.570312 -5.375 1.34375 -6 C 1.207031 -6.332031 1.078125 -6.566406 0.953125 -6.703125 C 0.828125 -6.835938 0.644531 -6.929688 0.40625 -6.984375 C 0.375 -6.984375 0.328125 -6.988281 0.265625 -7 C 0.203125 -7.019531 0.160156 -7.046875 0.140625 -7.078125 C 0.117188 -7.109375 0.109375 -7.164062 0.109375 -7.25 C 0.109375 -7.34375 0.132812 -7.40625 0.1875 -7.4375 C 0.238281 -7.46875 0.316406 -7.484375 0.421875 -7.484375 C 1.015625 -7.484375 1.460938 -7.390625 1.765625 -7.203125 C 2.066406 -7.023438 2.3125 -6.707031 2.5 -6.25 L 4.203125 -1.65625 L 4.234375 -1.65625 L 5.859375 -6.375 C 5.910156 -6.507812 5.9375 -6.613281 5.9375 -6.6875 C 5.9375 -6.789062 5.890625 -6.859375 5.796875 -6.890625 C 5.703125 -6.929688 5.550781 -6.953125 5.34375 -6.953125 L 5.265625 -6.953125 C 5.191406 -6.953125 5.140625 -6.960938 5.109375 -6.984375 C 5.078125 -7.015625 5.054688 -7.085938 5.046875 -7.203125 C 5.046875 -7.273438 5.0625 -7.332031 5.09375 -7.375 C 5.132812 -7.425781 5.1875 -7.453125 5.25 -7.453125 C 5.757812 -7.429688 6.1875 -7.421875 6.53125 -7.421875 C 6.675781 -7.421875 6.960938 -7.429688 7.390625 -7.453125 L 7.640625 -7.453125 C 7.703125 -7.453125 7.75 -7.425781 7.78125 -7.375 C 7.820312 -7.332031 7.84375 -7.273438 7.84375 -7.203125 C 7.84375 -7.085938 7.820312 -7.015625 7.78125 -6.984375 C 7.75 -6.960938 7.695312 -6.953125 7.625 -6.953125 C 7.289062 -6.953125 7.035156 -6.894531 6.859375 -6.78125 C 6.679688 -6.675781 6.53125 -6.46875 6.40625 -6.15625 C 6.164062 -5.507812 5.785156 -4.46875 5.265625 -3.03125 C 4.742188 -1.59375 4.363281 -0.539062 4.125 0.125 Z M 3.578125 0.125 "/></g></g></g><g fill="#270b04" fill-opacity="1"><g transform="translate(158.655445, 40.071059)"><g><path d="M 0.703125 0.03125 C 0.640625 0.03125 0.585938 0.00390625 0.546875 -0.046875 C 0.515625 -0.0976562 0.5 -0.15625 0.5 -0.21875 C 0.507812 -0.34375 0.535156 -0.414062 0.578125 -0.4375 C 0.617188 -0.457031 0.691406 -0.46875 0.796875 -0.46875 C 1.023438 -0.46875 1.191406 -0.507812 1.296875 -0.59375 C 1.410156 -0.675781 1.476562 -0.773438 1.5 -0.890625 C 1.53125 -1.015625 1.550781 -1.175781 1.5625 -1.375 L 1.5625 -6.046875 C 1.550781 -6.242188 1.53125 -6.398438 1.5 -6.515625 C 1.476562 -6.640625 1.410156 -6.742188 1.296875 -6.828125 C 1.191406 -6.910156 1.023438 -6.953125 0.796875 -6.953125 L 0.734375 -6.953125 C 0.648438 -6.953125 0.59375 -6.960938 0.5625 -6.984375 C 0.53125 -7.015625 0.507812 -7.085938 0.5 -7.203125 C 0.5 -7.273438 0.515625 -7.332031 0.546875 -7.375 C 0.585938 -7.425781 0.640625 -7.453125 0.703125 -7.453125 C 1.222656 -7.429688 1.691406 -7.421875 2.109375 -7.421875 L 5.796875 -7.421875 C 6.003906 -7.421875 6.109375 -7.328125 6.109375 -7.140625 L 6.140625 -5.5 C 6.140625 -5.425781 6.101562 -5.367188 6.03125 -5.328125 C 5.96875 -5.285156 5.898438 -5.265625 5.828125 -5.265625 C 5.734375 -5.265625 5.648438 -5.28125 5.578125 -5.3125 C 5.503906 -5.34375 5.460938 -5.394531 5.453125 -5.46875 C 5.390625 -5.851562 5.320312 -6.144531 5.25 -6.34375 C 5.175781 -6.539062 5.066406 -6.6875 4.921875 -6.78125 C 4.773438 -6.882812 4.570312 -6.941406 4.3125 -6.953125 L 2.734375 -6.953125 L 2.734375 -3.96875 L 4.859375 -3.96875 C 4.910156 -3.957031 4.953125 -3.925781 4.984375 -3.875 C 5.015625 -3.820312 5.03125 -3.757812 5.03125 -3.6875 C 5.03125 -3.625 5.015625 -3.566406 4.984375 -3.515625 C 4.953125 -3.472656 4.910156 -3.453125 4.859375 -3.453125 L 2.734375 -3.453125 L 2.734375 -1.234375 C 2.742188 -1.066406 2.757812 -0.929688 2.78125 -0.828125 C 2.8125 -0.734375 2.882812 -0.644531 3 -0.5625 C 3.113281 -0.488281 3.296875 -0.457031 3.546875 -0.46875 L 4.640625 -0.46875 C 4.910156 -0.476562 5.113281 -0.523438 5.25 -0.609375 C 5.394531 -0.691406 5.507812 -0.816406 5.59375 -0.984375 C 5.675781 -1.160156 5.773438 -1.441406 5.890625 -1.828125 C 5.953125 -1.972656 6.085938 -2.03125 6.296875 -2 C 6.367188 -1.988281 6.4375 -1.957031 6.5 -1.90625 C 6.5625 -1.851562 6.585938 -1.796875 6.578125 -1.734375 L 6.34375 -0.25 C 6.320312 -0.144531 6.285156 -0.078125 6.234375 -0.046875 C 6.191406 -0.015625 6.113281 0 6 0 L 2.125 0 C 1.695312 0 1.222656 0.0078125 0.703125 0.03125 Z M 0.703125 0.03125 "/></g></g></g><g fill="#270b04" fill-opacity="1"><g transform="translate(167.411484, 40.071059)"><g><path d="M 0.734375 0.03125 C 0.660156 0.03125 0.601562 0.00390625 0.5625 -0.046875 C 0.53125 -0.0976562 0.515625 -0.15625 0.515625 -0.21875 C 0.523438 -0.34375 0.546875 -0.414062 0.578125 -0.4375 C 0.617188 -0.457031 0.695312 -0.46875 0.8125 -0.46875 C 1.039062 -0.46875 1.207031 -0.507812 1.3125 -0.59375 C 1.414062 -0.675781 1.476562 -0.773438 1.5 -0.890625 C 1.53125 -1.003906 1.546875 -1.164062 1.546875 -1.375 L 1.578125 -6.046875 C 1.578125 -6.285156 1.550781 -6.460938 1.5 -6.578125 C 1.445312 -6.703125 1.363281 -6.789062 1.25 -6.84375 C 1.144531 -6.90625 0.988281 -6.953125 0.78125 -6.984375 C 0.65625 -7.015625 0.578125 -7.039062 0.546875 -7.0625 C 0.515625 -7.082031 0.5 -7.148438 0.5 -7.265625 C 0.5 -7.359375 0.519531 -7.421875 0.5625 -7.453125 C 0.613281 -7.484375 0.695312 -7.5 0.8125 -7.5 C 1.300781 -7.5 1.6875 -7.460938 1.96875 -7.390625 C 2.25 -7.328125 2.492188 -7.207031 2.703125 -7.03125 C 2.921875 -6.863281 3.160156 -6.601562 3.421875 -6.25 L 6.640625 -2.015625 L 6.6875 -2.015625 L 6.65625 -6.046875 C 6.644531 -6.253906 6.628906 -6.414062 6.609375 -6.53125 C 6.585938 -6.644531 6.523438 -6.742188 6.421875 -6.828125 C 6.316406 -6.910156 6.148438 -6.953125 5.921875 -6.953125 L 5.84375 -6.953125 C 5.769531 -6.953125 5.710938 -6.960938 5.671875 -6.984375 C 5.640625 -7.015625 5.617188 -7.085938 5.609375 -7.203125 C 5.609375 -7.273438 5.628906 -7.332031 5.671875 -7.375 C 5.710938 -7.425781 5.765625 -7.453125 5.828125 -7.453125 C 6.328125 -7.429688 6.703125 -7.421875 6.953125 -7.421875 C 7.097656 -7.421875 7.382812 -7.429688 7.8125 -7.453125 L 8.0625 -7.453125 C 8.132812 -7.453125 8.1875 -7.425781 8.21875 -7.375 C 8.25 -7.332031 8.265625 -7.273438 8.265625 -7.203125 C 8.265625 -7.085938 8.242188 -7.015625 8.203125 -6.984375 C 8.160156 -6.960938 8.085938 -6.953125 7.984375 -6.953125 C 7.753906 -6.953125 7.582031 -6.910156 7.46875 -6.828125 C 7.363281 -6.742188 7.300781 -6.644531 7.28125 -6.53125 C 7.257812 -6.414062 7.242188 -6.253906 7.234375 -6.046875 L 7.21875 -0.125 C 7.207031 -0.0195312 7.109375 0.03125 6.921875 0.03125 C 6.765625 0.03125 6.648438 -0.0195312 6.578125 -0.125 L 2.140625 -6.046875 L 2.109375 -6.046875 L 2.125 -1.375 C 2.132812 -1.164062 2.148438 -1.003906 2.171875 -0.890625 C 2.203125 -0.773438 2.269531 -0.675781 2.375 -0.59375 C 2.476562 -0.507812 2.644531 -0.46875 2.875 -0.46875 L 2.9375 -0.46875 C 3.019531 -0.46875 3.078125 -0.453125 3.109375 -0.421875 C 3.148438 -0.398438 3.171875 -0.332031 3.171875 -0.21875 C 3.171875 -0.15625 3.15625 -0.0976562 3.125 -0.046875 C 3.09375 0.00390625 3.039062 0.03125 2.96875 0.03125 C 2.46875 0.0078125 2.085938 0 1.828125 0 C 1.671875 0 1.394531 0.0078125 1 0.03125 Z M 0.734375 0.03125 "/></g></g></g></svg>